<?xml version="1.0" encoding="utf-8"?>
<svg xmlns="http://www.w3.org/2000/svg" viewBox="0 0 273.189 300.509">
  <defs>
    <linearGradient id="linear-gradient" x1="894.85" y1="76.03" x2="704.39" y2="370.37" gradientUnits="userSpaceOnUse">
      <stop offset="0" stop-color="#e3c394"/>
      <stop offset="1" stop-color="#a9763f"/>
    </linearGradient>
    <linearGradient id="linear-gradient-2" x1="963.97" y1="120.76" x2="773.52" y2="415.1" href="#linear-gradient"/>
  </defs>
  <g id="Content">
    <g transform="matrix(1, 0, 0, 1, -710.410706, -67.347557)">
      <path class="cls-4" d="m712.22,369.02l116.62-28.4c19.88-4.83,36.39-18.6,44.71-37.29l-151.93,55.61-9.4,10.07Z" style="fill: rgb(214, 214, 214); stroke-width: 0px;"/>
      <g>
        <path class="cls-1" d="m964.33,69.34h-70.54c-21.76,0-42.64,8.65-58.03,24.04l-42.79,42.79c-15.39,15.39-24.04,36.26-24.04,58.03v43.21l-56.72,131.63,33.11-28.29s78.82-161.57,218.99-271.39Z" style="fill: url(&quot;#linear-gradient&quot;); stroke-width: 0px;"/>
        <path class="cls-2" d="m796.08,292.74l82.72-15.8c17.21-3.29,32.92-12,44.82-24.86l35.07-37.89c14.04-15.17,21.84-35.08,21.84-55.75v-70.01s-105.34,85.59-184.46,204.3Z" style="fill: url(&quot;#linear-gradient-2&quot;); stroke-width: 0px;"/>
      </g>
    </g>
  </g>
</svg>