<svg width="30" height="30" viewBox="0 0 30 30" fill="none" xmlns="http://www.w3.org/2000/svg">
<g clip-path="url(#clip0_0_67)">
<path d="M27.6562 12.7734C27.6562 13.6063 28.2472 14.3307 29.0614 14.496C29.6075 14.6068 30 15.087 30 15.6443V17.4609C30 18.1082 29.4754 18.6328 28.8281 18.6328C28.1808 18.6328 27.6562 18.1082 27.6562 17.4609V16.4795C26.2555 15.8123 25.3125 14.379 25.3125 12.7734C25.3125 11.1678 26.2555 9.73457 27.6562 9.06738V6.91406C27.6562 5.6218 26.6048 4.57031 25.3125 4.57031H20.8008C20.8008 5.21759 20.2762 5.74219 19.6289 5.74219C18.9816 5.74219 18.457 5.21759 18.457 4.57031H4.6875C3.39523 4.57031 2.34375 5.6218 2.34375 6.91406V9.06738C3.74451 9.73457 4.6875 11.1678 4.6875 12.7734C4.6875 14.379 3.74451 15.8123 2.34375 16.4795V18.6328C2.34375 19.9251 3.39523 20.9766 4.6875 20.9766H15.293C15.9402 20.9766 16.4648 21.5012 16.4648 22.1484C16.4648 22.7957 15.9402 23.3203 15.293 23.3203H4.6875C2.10274 23.3203 0 21.2176 0 18.6328V15.6443C0 15.087 0.392532 14.6068 0.938644 14.496C1.75278 14.3307 2.34375 13.6063 2.34375 12.7734C2.34375 11.9405 1.75278 11.2161 0.938644 11.0509C0.392532 10.9401 0 10.4599 0 9.90257V6.91406C0 4.3293 2.10274 2.22656 4.6875 2.22656H25.3125C27.8973 2.22656 30 4.3293 30 6.91406V9.90257C30 10.4599 29.6075 10.9401 29.0614 11.0509C28.2472 11.2161 27.6562 11.9405 27.6562 12.7734ZM19.6289 9.84375C20.2762 9.84375 20.8008 9.31915 20.8008 8.67188C20.8008 8.0246 20.2762 7.5 19.6289 7.5C18.9816 7.5 18.457 8.0246 18.457 8.67188C18.457 9.31915 18.9816 9.84375 19.6289 9.84375ZM19.6289 13.9453C20.2762 13.9453 20.8008 13.4207 20.8008 12.7734C20.8008 12.1262 20.2762 11.6016 19.6289 11.6016C18.9816 11.6016 18.457 12.1262 18.457 12.7734C18.457 13.4207 18.9816 13.9453 19.6289 13.9453ZM20.8008 16.875C20.8008 16.2277 20.2762 15.7031 19.6289 15.7031C18.9816 15.7031 18.457 16.2277 18.457 16.875C18.457 17.5223 18.9816 18.0469 19.6289 18.0469C20.2762 18.0469 20.8008 17.5223 20.8008 16.875ZM28.8281 20.9766H25.6055V17.7539C25.6055 17.1066 25.0809 16.582 24.4336 16.582C23.7863 16.582 23.2617 17.1066 23.2617 17.7539V20.9766H20.0391C19.3918 20.9766 18.8672 21.5012 18.8672 22.1484C18.8672 22.7957 19.3918 23.3203 20.0391 23.3203H23.2617V26.543C23.2617 27.1902 23.7863 27.7148 24.4336 27.7148C25.0809 27.7148 25.6055 27.1902 25.6055 26.543V23.3203H28.8281C29.4754 23.3203 30 22.7957 30 22.1484C30 21.5012 29.4754 20.9766 28.8281 20.9766Z" fill="#5C5A5A"/>
</g>
<defs>
<clipPath id="clip0_0_67">
<rect width="30" height="30" fill="white"/>
</clipPath>
</defs>
</svg>
