<svg width="31" height="30" viewBox="0 0 31 30" fill="none" xmlns="http://www.w3.org/2000/svg">
<path d="M26.5863 20.7749C31.3587 16.0287 31.3586 8.30592 26.5863 3.55968C21.8139 -1.18656 14.0485 -1.18656 9.27616 3.55968C5.22738 7.58622 4.61419 13.5747 7.43495 18.2511C7.43495 18.2511 7.63756 18.5891 7.36391 18.8611C5.80276 20.4136 1.11902 25.0717 1.11902 25.0717C-0.123967 26.3077 -0.419872 28.0362 0.682408 29.1326L0.872195 29.3211C1.97447 30.4176 3.71258 30.1234 4.95548 28.8872C4.95548 28.8872 9.6293 24.239 11.1872 22.6897C11.474 22.4045 11.8138 22.606 11.8138 22.606C16.516 25.4112 22.5375 24.8014 26.5863 20.7749ZM11.5359 18.5275C8.00956 15.0205 8.00965 9.31429 11.536 5.80731C15.0624 2.30042 20.8001 2.30032 24.3264 5.80731C27.8527 9.31419 27.8527 15.0205 24.3264 18.5275C20.8 22.0343 15.0624 22.0343 11.5359 18.5275Z" fill="#5C5A5A"/>
<path d="M12.3168 11.445C12.1527 11.445 11.9858 11.4129 11.825 11.3454C11.1826 11.075 10.882 10.3378 11.1539 9.69878C12.8629 5.68239 17.5387 3.79756 21.5772 5.49713C22.2196 5.76753 22.5202 6.50473 22.2483 7.14373C21.9763 7.78274 21.2352 8.08146 20.5925 7.81115C17.8372 6.65163 14.6466 7.93765 13.4808 10.6779C13.2768 11.1571 12.809 11.445 12.3168 11.445Z" fill="#5C5A5A"/>
</svg>
