<?xml version="1.0" encoding="UTF-8"?>
<svg id="Content" xmlns="http://www.w3.org/2000/svg" xmlns:xlink="http://www.w3.org/1999/xlink" viewBox="0 0 1000 400">
  <defs>
    <style>
      .cls-1 {
        fill: url(#linear-gradient);
      }

      .cls-1, .cls-2, .cls-3, .cls-4 {
        stroke-width: 0px;
      }

      .cls-2 {
        fill: url(#linear-gradient-2);
      }

      .cls-3 {
        fill: #464351;
      }

      .cls-4 {
        fill: #d6d6d6;
      }
    </style>
    <linearGradient id="linear-gradient" x1="894.85" y1="76.03" x2="704.39" y2="370.37" gradientUnits="userSpaceOnUse">
      <stop offset="0" stop-color="#e3c394"/>
      <stop offset="1" stop-color="#a9763f"/>
    </linearGradient>
    <linearGradient id="linear-gradient-2" x1="963.97" y1="120.76" x2="773.52" y2="415.1" xlink:href="#linear-gradient"/>
  </defs>
  <g>
    <g>
      <path class="cls-3" d="m66.5,67.33l-10.67,11.26c24.1,23.11,37.73,42.87,37.73,57.29,0,12.45-10.27,19.36-31.81,19.36-19.56,0-31.21-3.95-30.03-27.06l-12.05.59c-1.38,21.53,2.96,42.87,40.69,42.87,31.21,0,46.03-13.63,46.03-37.53,0-25.29-22.72-50.18-39.91-66.77Z"/>
      <rect class="cls-3" x="131.1" y="30.98" width="13.04" height="138.88"/>
      <path class="cls-3" d="m581.11,93.01c-21.93,0-37.34,15.01-44.25,44.25-4.15,14.22-14.62,16.2-24.69,16.2h-228.16c-15.8,0-20.15-6.52-27.66-22.13l-30.62-64.01-13.04,5.93,28.64,60.45c-.39,13.83-13.43,21.53-32.2,21.53s-31.21-3.95-30.03-27.06l-12.05.59c-1.38,21.53,3.16,42.87,40.69,42.87,21.73,0,35.76-8.69,41.09-24.5,7.11,14.22,15.41,22.72,34.57,22.72h0s228.36,0,228.36,0h.02c18.06,0,28.02-12.69,33.01-21.45,2.15-3.78,3.68-7.86,4.84-12.04,4.59-16.53,14.47-27.15,29.5-27.15,14.03,0,24.3,11.06,24.3,26.27,0,11.26-9.09,18.96-25.68,18.96-2.25,0-19.24-.13-21.22-.35l-13.56,16.38c1.29.1,31.05.17,32.41.17,24.69,0,40.89-14.82,40.89-38.13,0-21.14-14.62-39.51-35.16-39.51Z"/>
    </g>
    <g>
      <path class="cls-3" d="m25.32,350.94l1.47-17.86,3.72-71.92,1.57-41.99c4.87.07,9.1.1,12.69.1,3.33,0,7.37-.03,12.11-.1l2.49,8.4c.71,2.25,1.6,4.89,2.66,7.92,1.06,3.03,2.89,8.08,5.5,15.16l12.95,34.27,16.22,45.95,17.68-45.95,20.24-50.2c.71-1.8,1.4-3.72,2.08-5.74.67-2.03,1.74-5.29,3.2-9.8,4.18.07,8.51.1,13.01.1,3.6,0,7.71-.03,12.33-.1l.27,46.05.46,30.22c.03,2.83.09,5.66.18,8.49l.81,22.11.4,12.45c.05,1.42.24,5.57.6,12.45-4.25-.13-7.08-.19-8.49-.19-1.99,0-4.91.06-8.77.19l.18-12.26-.8-69.51c-.06-7.79-.24-16.44-.55-25.97l-.35-7.92-38.99,101.65-5.13,14c-4.19-.13-7.12-.19-8.8-.19-2,0-5.09.06-9.27.19l-12.62-36.39-12.98-35.81-12.84-34.56c-.56-1.54-1.52-4.31-2.86-8.3l-.81,11.29-3.21,83.02c-.04,2.77-.07,5.54-.07,8.3,0,2.77,0,6.92.06,12.45l-8.08-.19c-1.28,0-4.03.06-8.26.19Z"/>
      <path class="cls-3" d="m273.67,335.59c-.66,3.54-1.28,8.05-1.88,13.51-6.12,1.55-11.43,2.59-15.95,3.14-4.51.55-9.02.82-13.51.82-8.03,0-15.28-.97-21.73-2.9-6.46-1.93-12.04-5.29-16.76-10.09-4.72-4.79-8.17-10.28-10.36-16.46-2.19-6.18-3.4-12.71-3.62-19.6-.31-9.59,1.23-18.49,4.63-26.69,3.4-8.2,8.7-14.66,15.9-19.35,7.2-4.7,16.46-7.05,27.77-7.05,5.85,0,11.46.85,16.85,2.56,5.39,1.71,9.9,4.3,13.55,7.77,3.65,3.48,6.52,7.77,8.61,12.89,2.09,5.12,3.24,10.7,3.43,16.75.07,2.32-.05,4.57-.36,6.76h-73.54c-.14,3.54-.18,6.24-.12,8.11.22,6.76,1.83,12.98,4.84,18.68,3.01,5.69,7.33,10.01,12.95,12.94,5.62,2.93,12.03,4.39,19.23,4.39,8.29,0,18.31-2.06,30.06-6.18Zm-66.44-45.95h57.44c-.2-4.05-.55-7.21-1.08-9.46-.52-2.25-1.43-4.59-2.73-7-1.3-2.41-3.02-4.5-5.17-6.27-2.15-1.77-4.69-3.12-7.65-4.05-2.96-.93-6.13-1.4-9.54-1.4-3.66,0-7.13.52-10.41,1.54-3.28,1.03-6.15,2.45-8.63,4.25-2.48,1.8-4.56,3.91-6.25,6.32-1.69,2.41-2.93,4.75-3.72,7-.8,2.25-1.55,5.28-2.26,9.07Z"/>
      <path class="cls-3" d="m390.22,351.14c-3.8-.13-6.43-.19-7.91-.19-1.61,0-4.4,0-8.39,0l.48-20.85c-1.94,3.6-3.62,6.39-5.03,8.35-1.41,1.96-3.11,3.81-5.07,5.55-1.97,1.74-4.26,3.3-6.88,4.68-2.62,1.38-5.56,2.46-8.81,3.23-3.25.77-6.71,1.16-10.37,1.16-6.23,0-12.1-1.13-17.6-3.38-5.5-2.25-10.22-5.47-14.14-9.65-3.93-4.18-6.81-9.06-8.66-14.62-1.85-5.57-2.87-11.37-3.07-17.42-.26-8.11,1.05-16.09,3.95-23.94,2.89-7.85,7.14-14.34,12.72-19.45,5.58-5.12,11.97-8.67,19.17-10.67,7.19-1.99,14.87-2.99,23.03-2.99,5.65,0,12.39.64,20.2,1.93.09-7.01.07-12.84-.08-17.47-.22-6.69-.42-12.1-.62-16.22l8.78.1c2.19,0,5.11-.03,8.77-.1l-1.03,54.52.09,62.45.48,14.99Zm-16.67-86.11c-3.89-1.16-7.21-1.9-9.95-2.22-2.74-.32-5.4-.48-7.96-.48-6.17,0-12.03.89-17.6,2.65-5.56,1.77-10.42,4.68-14.56,8.74-4.14,4.05-7.27,9.2-9.38,15.45-2.11,6.24-3.07,12.36-2.88,18.34.19,5.98,1.46,11.57,3.82,16.75,2.35,5.18,5.87,9.24,10.56,12.16,4.69,2.93,10.08,4.39,16.19,4.39,3.66,0,6.99-.5,9.97-1.5,2.99-1,5.69-2.46,8.1-4.39,2.41-1.93,4.66-4.54,6.73-7.82,2.08-3.28,3.69-7.08,4.83-11.39.97-3.8,1.61-8.91,1.91-15.35.15-3.15.25-9.23.28-18.25l-.07-17.09Z"/>
      <path class="cls-3" d="m419.65,268.7c.49-2.83.96-7.01,1.43-12.55,7.65-1.99,14.3-3.36,19.96-4.1,5.66-.74,11.19-1.11,16.59-1.11,5.78,0,11.21.53,16.29,1.59,5.08,1.06,9.33,2.78,12.74,5.16,3.42,2.38,5.72,5.12,6.92,8.21,1.19,3.09,1.85,6.4,1.96,9.94.14,4.44.05,11.89-.28,22.35-.33,10.46-.53,20.13-.6,29.01-.07,8.88.02,16.8.24,23.75-3.48-.13-6.31-.19-8.5-.19-2.06,0-4.98.06-8.77.19l1.2-26.35.46-31.18c-2.2,1.74-3.84,2.96-4.95,3.67-1.1.71-2.35,1.37-3.75,1.98-1.4.61-2.94,1.19-4.62,1.74-1.69.55-4.97,1.5-9.84,2.85-4.87,1.35-8.33,2.38-10.36,3.09-4.39,1.42-7.85,2.83-10.38,4.25-2.53,1.42-4.63,2.96-6.31,4.63-1.68,1.67-2.85,3.35-3.5,5.02-.77,2.06-1.12,4.22-1.05,6.47.11,3.48,1.24,6.5,3.38,9.07,2.14,2.58,4.78,4.36,7.93,5.36,3.15,1,6.91,1.5,11.28,1.5,2.7,0,5.52-.19,8.46-.56,2.94-.38,6.86-1.35,11.76-2.91-.82,2.49-1.72,6.32-2.71,11.49-4.66.9-8.47,1.46-11.42,1.69-2.95.23-5.74.34-8.37.34-8.8,0-15.71-1.03-20.73-3.09-5.02-2.06-8.81-5.2-11.39-9.41-2.58-4.21-3.95-8.8-4.11-13.76-.09-2.9.25-5.57,1.04-8.01.79-2.45,1.89-4.67,3.3-6.66,1.42-1.99,3.45-3.99,6.12-5.99,2.67-1.99,5.47-3.63,8.42-4.92,2.95-1.29,6.39-2.56,10.34-3.81,3.94-1.26,10.28-2.94,19.02-5.07,2.81-.64,5.2-1.3,7.17-1.98,1.97-.68,3.72-1.33,5.24-1.98,1.52-.64,2.85-1.4,3.98-2.27,1.13-.87,2.16-1.93,3.08-3.19.92-1.25,1.59-2.52,2-3.81.41-1.29.59-2.57.55-3.86-.1-3.15-1.22-5.86-3.35-8.11-2.13-2.25-4.86-3.83-8.2-4.73-3.34-.9-7.26-1.35-11.76-1.35-4.18,0-8.46.34-12.84,1.01-4.38.68-8.15,1.48-11.3,2.41-3.15.93-7.07,2.33-11.77,4.2Z"/>
      <path class="cls-3" d="m612.18,351.14c-3.8-.13-6.43-.19-7.91-.19-1.61,0-4.4,0-8.39,0l.48-20.85c-1.94,3.6-3.62,6.39-5.03,8.35-1.41,1.96-3.11,3.81-5.07,5.55-1.97,1.74-4.26,3.3-6.88,4.68-2.62,1.38-5.56,2.46-8.81,3.23-3.25.77-6.71,1.16-10.37,1.16-6.23,0-12.1-1.13-17.6-3.38-5.5-2.25-10.22-5.47-14.14-9.65-3.93-4.18-6.81-9.06-8.66-14.62-1.85-5.57-2.87-11.37-3.07-17.42-.26-8.11,1.05-16.09,3.95-23.94,2.89-7.85,7.14-14.34,12.72-19.45,5.58-5.12,11.97-8.67,19.17-10.67,7.19-1.99,14.87-2.99,23.03-2.99,5.65,0,12.39.64,20.2,1.93.09-7.01.07-12.84-.08-17.47-.22-6.69-.42-12.1-.62-16.22l8.78.1c2.19,0,5.11-.03,8.77-.1l-1.03,54.52.09,62.45.48,14.99Zm-16.67-86.11c-3.89-1.16-7.21-1.9-9.95-2.22-2.74-.32-5.4-.48-7.96-.48-6.17,0-12.03.89-17.6,2.65-5.56,1.77-10.42,4.68-14.56,8.74-4.14,4.05-7.27,9.2-9.38,15.45-2.11,6.24-3.07,12.36-2.88,18.34.19,5.98,1.46,11.57,3.82,16.75,2.35,5.18,5.87,9.24,10.56,12.16,4.69,2.93,10.08,4.39,16.19,4.39,3.66,0,6.99-.5,9.97-1.5,2.99-1,5.69-2.46,8.1-4.39,2.41-1.93,4.66-4.54,6.73-7.82,2.08-3.28,3.69-7.08,4.83-11.39.97-3.8,1.61-8.91,1.91-15.35.15-3.15.25-9.23.28-18.25l-.07-17.09Z"/>
    </g>
  </g>
  <g>
    <path class="cls-4" d="m712.22,369.02l116.62-28.4c19.88-4.83,36.39-18.6,44.71-37.29l-151.93,55.61-9.4,10.07Z"/>
    <g>
      <path class="cls-1" d="m964.33,69.34h-70.54c-21.76,0-42.64,8.65-58.03,24.04l-42.79,42.79c-15.39,15.39-24.04,36.26-24.04,58.03v43.21l-56.72,131.63,33.11-28.29s78.82-161.57,218.99-271.39Z"/>
      <path class="cls-2" d="m796.08,292.74l82.72-15.8c17.21-3.29,32.92-12,44.82-24.86l35.07-37.89c14.04-15.17,21.84-35.08,21.84-55.75v-70.01s-105.34,85.59-184.46,204.3Z"/>
    </g>
  </g>
</svg>